<svg width="41" height="44" viewBox="0 0 41 44" fill="none" xmlns="http://www.w3.org/2000/svg">
<path d="M36.6071 0.125H4.39286C3.2278 0.125 2.11046 0.61886 1.28664 1.49794C0.462818 2.37701 0 3.5693 0 4.8125L0 39.1875C0 40.4307 0.462818 41.623 1.28664 42.5021C2.11046 43.3811 3.2278 43.875 4.39286 43.875H16.9537V29.001H11.1881V22H16.9537V16.6641C16.9537 10.5947 20.3398 7.24219 25.5262 7.24219C28.01 7.24219 30.6072 7.71484 30.6072 7.71484V13.6719H27.7455C24.9258 13.6719 24.0463 15.5391 24.0463 17.4541V22H30.3409L29.3342 29.001H24.0463V43.875H36.6071C37.7722 43.875 38.8895 43.3811 39.7134 42.5021C40.5372 41.623 41 40.4307 41 39.1875V4.8125C41 3.5693 40.5372 2.37701 39.7134 1.49794C38.8895 0.61886 37.7722 0.125 36.6071 0.125Z" fill="#4C5D9B"/>
</svg>
