<svg width="33" height="25" viewBox="0 0 33 25" fill="none" xmlns="http://www.w3.org/2000/svg">
<path d="M32.2389 4.51284C31.8611 3.0809 30.7479 1.95316 29.3345 1.57044C26.7727 0.875 16.5 0.875 16.5 0.875C16.5 0.875 6.22739 0.875 3.66549 1.57044C2.25212 1.95322 1.13896 3.0809 0.761153 4.51284C0.074707 7.1083 0.074707 12.5235 0.074707 12.5235C0.074707 12.5235 0.074707 17.9387 0.761153 20.5341C1.13896 21.9661 2.25212 23.0468 3.66549 23.4296C6.22739 24.125 16.5 24.125 16.5 24.125C16.5 24.125 26.7726 24.125 29.3345 23.4296C30.7479 23.0468 31.8611 21.9661 32.2389 20.5341C32.9253 17.9387 32.9253 12.5235 32.9253 12.5235C32.9253 12.5235 32.9253 7.1083 32.2389 4.51284ZM13.1403 17.4401V7.6069L21.7262 12.5236L13.1403 17.4401Z" fill="black"/>
</svg>
