<svg width="28" height="29" viewBox="0 0 28 29" fill="none" xmlns="http://www.w3.org/2000/svg">
<path d="M14.2711 7.53709C10.388 7.53709 7.25584 10.6431 7.25584 14.4939C7.25584 18.3447 10.388 21.4508 14.2711 21.4508C18.1543 21.4508 21.2864 18.3447 21.2864 14.4939C21.2864 10.6431 18.1543 7.53709 14.2711 7.53709ZM14.2711 19.0168C11.7617 19.0168 9.71027 16.9885 9.71027 14.4939C9.71027 11.9994 11.7556 9.97107 14.2711 9.97107C16.7866 9.97107 18.832 11.9994 18.832 14.4939C18.832 16.9885 16.7805 19.0168 14.2711 19.0168ZM23.2097 7.25251C23.2097 8.15466 22.477 8.87517 21.5734 8.87517C20.6637 8.87517 19.9371 8.14861 19.9371 7.25251C19.9371 6.35642 20.6698 5.62986 21.5734 5.62986C22.477 5.62986 23.2097 6.35642 23.2097 7.25251ZM27.856 8.89939C27.7522 6.72576 27.2516 4.80037 25.6458 3.21404C24.0461 1.62771 22.1046 1.13123 19.9127 1.02224C17.6536 0.895093 10.8825 0.895093 8.62348 1.02224C6.43769 1.12517 4.49612 1.62166 2.89036 3.20798C1.2846 4.79431 0.790047 6.7197 0.680147 8.89334C0.55193 11.1336 0.55193 17.8482 0.680147 20.0885C0.783942 22.2621 1.2846 24.1875 2.89036 25.7738C4.49612 27.3601 6.43159 27.8566 8.62348 27.9656C10.8825 28.0927 17.6536 28.0927 19.9127 27.9656C22.1046 27.8627 24.0461 27.3662 25.6458 25.7738C27.2454 24.1875 27.7461 22.2621 27.856 20.0885C27.9842 17.8482 27.9842 11.1396 27.856 8.89939ZM24.9375 22.4922C24.4613 23.6789 23.5394 24.5931 22.3366 25.0715C20.5354 25.7799 16.2615 25.6164 14.2711 25.6164C12.2807 25.6164 8.00072 25.7738 6.20568 25.0715C5.00899 24.5992 4.08705 23.6849 3.60471 22.4922C2.89036 20.706 3.05521 16.4677 3.05521 14.4939C3.05521 12.5201 2.89647 8.27576 3.60471 6.49568C4.08095 5.30896 5.00288 4.3947 6.20568 3.91638C8.00682 3.20798 12.2807 3.37146 14.2711 3.37146C16.2615 3.37146 20.5415 3.21404 22.3366 3.91638C23.5333 4.38865 24.4552 5.30291 24.9375 6.49568C25.6519 8.28181 25.487 12.5201 25.487 14.4939C25.487 16.4677 25.6519 20.7121 24.9375 22.4922Z" fill="black"/>
</svg>
