<svg width="49" height="53" viewBox="0 0 49 53" fill="none" xmlns="http://www.w3.org/2000/svg">
<path d="M46.7588 12.8445C46.2245 10.3964 44.6502 8.4683 42.6513 7.81398C39.0282 6.625 24.4999 6.625 24.4999 6.625C24.4999 6.625 9.97177 6.625 6.34857 7.81398C4.3497 8.46841 2.7754 10.3964 2.24108 12.8445C1.27026 17.2819 1.27026 26.5402 1.27026 26.5402C1.27026 26.5402 1.27026 35.7984 2.24108 40.2358C2.7754 42.6839 4.3497 44.5317 6.34857 45.186C9.97177 46.375 24.4999 46.375 24.4999 46.375C24.4999 46.375 39.0281 46.375 42.6513 45.186C44.6502 44.5317 46.2245 42.6839 46.7588 40.2358C47.7296 35.7984 47.7296 26.5402 47.7296 26.5402C47.7296 26.5402 47.7296 17.2819 46.7588 12.8445ZM19.7484 34.9459V18.1344L31.8911 26.5404L19.7484 34.9459Z" fill="#FF0000"/>
</svg>
