<svg width="28" height="31" viewBox="0 0 28 31" fill="none" xmlns="http://www.w3.org/2000/svg">
<g clip-path="url(#clip0)">
<path d="M24.4223 1.9375H2.93067C2.15341 1.9375 1.40798 2.24369 0.858374 2.78872C0.308766 3.33375 0 4.07296 0 4.84375L0 26.1562C0 26.927 0.308766 27.6663 0.858374 28.2113C1.40798 28.7563 2.15341 29.0625 2.93067 29.0625H11.3106V19.8406H7.46406V15.5H11.3106V12.1917C11.3106 8.42873 13.5696 6.35016 17.0296 6.35016C18.6867 6.35016 20.4195 6.6432 20.4195 6.6432V10.3366H18.5102C16.6291 10.3366 16.0424 11.4942 16.0424 12.6815V15.5H20.2418L19.5702 19.8406H16.0424V29.0625H24.4223C25.1995 29.0625 25.945 28.7563 26.4946 28.2113C27.0442 27.6663 27.3529 26.927 27.3529 26.1562V4.84375C27.3529 4.07296 27.0442 3.33375 26.4946 2.78872C25.945 2.24369 25.1995 1.9375 24.4223 1.9375Z" fill="black"/>
</g>
<defs>
<clipPath id="clip0">
<rect width="27.3529" height="31" fill="white"/>
</clipPath>
</defs>
</svg>
